<svg width="250" height="250" viewBox="0 0 250 250" fill="none" xmlns="http://www.w3.org/2000/svg">
<circle cx="125" cy="125" r="125" fill="#242B2D"/>
<path d="M46.088 182V88.56H64.008V166.768H111.496V182H46.088ZM155.071 183.28C129.855 183.28 117.567 167.28 117.567 144.752V88.56H135.487V148.592C135.487 161.008 143.295 168.048 155.071 168.048C167.615 168.048 174.527 160.24 174.527 148.592V88.56H192.447V144.752C192.447 169.072 178.879 183.28 155.071 183.28Z" fill="#F4F5F5"/>
<path d="M206.88 169.14C208.16 169.2 208.49 170.29 208.51 170.8H210.3C210.22 168.82 208.81 167.61 206.85 167.61C204.64 167.61 203 169 203 172.14C203 174.08 203.93 176.38 206.84 176.38C209.06 176.38 210.25 174.73 210.28 173.43H208.49C208.46 174.02 208.04 174.81 206.86 174.87C205.55 174.83 205 173.81 205 172.14C205 169.25 206.28 169.16 206.88 169.14ZM207 162C201.48 162 197 166.48 197 172C197 177.52 201.48 182 207 182C212.52 182 217 177.52 217 172C217 166.48 212.52 162 207 162ZM207 180C202.59 180 199 176.41 199 172C199 167.59 202.59 164 207 164C211.41 164 215 167.59 215 172C215 176.41 211.41 180 207 180Z" fill="#F4F5F5"/>
</svg>
