<svg width="60" height="60" viewBox="0 0 60 60" fill="none" xmlns="http://www.w3.org/2000/svg">
<circle cx="30" cy="30" r="30" fill="#FF2B59"/>
<path d="M11.01 43.72V21.82H15.21V40.15H26.34V43.72H11.01ZM36.5529 44.02C30.6429 44.02 27.7629 40.27 27.7629 34.99V21.82H31.9629V35.89C31.9629 38.8 33.7929 40.45 36.5529 40.45C39.4929 40.45 41.1129 38.62 41.1129 35.89V21.82H45.3129V34.99C45.3129 40.69 42.1329 44.02 36.5529 44.02Z" fill="#F4F5F5"/>
<path d="M49.6512 40.5937C49.9584 40.6081 50.0376 40.8697 50.0424 40.9921H50.472C50.4528 40.5169 50.1144 40.2265 49.644 40.2265C49.1136 40.2265 48.72 40.5601 48.72 41.3137C48.72 41.7793 48.9432 42.3313 49.6416 42.3313C50.1744 42.3313 50.46 41.9353 50.4672 41.6233H50.0376C50.0304 41.7649 49.9296 41.9545 49.6464 41.9689C49.332 41.9593 49.2 41.7145 49.2 41.3137C49.2 40.6201 49.5072 40.5985 49.6512 40.5937ZM49.68 38.8801C48.3552 38.8801 47.28 39.9553 47.28 41.2801C47.28 42.6049 48.3552 43.6801 49.68 43.6801C51.0048 43.6801 52.08 42.6049 52.08 41.2801C52.08 39.9553 51.0048 38.8801 49.68 38.8801ZM49.68 43.2001C48.6216 43.2001 47.76 42.3385 47.76 41.2801C47.76 40.2217 48.6216 39.3601 49.68 39.3601C50.7384 39.3601 51.6 40.2217 51.6 41.2801C51.6 42.3385 50.7384 43.2001 49.68 43.2001Z" fill="#F4F5F5"/>
</svg>
